<svg width="12" height="12" viewBox="0 0 12 12" fill="none" xmlns="http://www.w3.org/2000/svg">
<g clip-path="url(#clip0)">
<path d="M10.625 0H1.37503C0.616516 0 0 0.616516 0 1.37503V10.625C0 11.3835 0.616516 12 1.37503 12H10.625C11.3835 12 12 11.3835 12 10.625V1.37503C12 0.616516 11.3835 0 10.625 0V0Z" fill="#F44336"/>
<path d="M8.20952 7.50253C8.40499 7.69808 8.40499 8.01458 8.20952 8.20959C8.11202 8.30709 7.98403 8.35607 7.85595 8.35607C7.72796 8.35607 7.59997 8.30709 7.50246 8.20959L5.99999 6.70702L4.49752 8.20959C4.40002 8.30709 4.27203 8.35607 4.14404 8.35607C4.01595 8.35607 3.88796 8.30709 3.79046 8.20959C3.59499 8.01458 3.59499 7.69808 3.79046 7.50253L5.29302 6.00005L3.79046 4.49758C3.59499 4.30202 3.59499 3.98553 3.79046 3.79052C3.98602 3.59505 4.30196 3.59505 4.49752 3.79052L5.99999 5.29308L7.50246 3.79052C7.69802 3.59505 8.01397 3.59505 8.20952 3.79052C8.40499 3.98553 8.40499 4.30202 8.20952 4.49758L6.70696 6.00005L8.20952 7.50253Z" fill="#FAFAFA"/>
</g>
<defs>
<clipPath id="clip0">
<rect width="12" height="12" fill="white"/>
</clipPath>
</defs>
</svg>
